<svg width="28" height="28" viewBox="0 0 28 28" fill="none" xmlns="http://www.w3.org/2000/svg">
<g clip-path="url(#clip0_372_4895)">
<path fill-rule="evenodd" clip-rule="evenodd" d="M22.541 5.01651C22.7846 3.60476 23.142 2.71701 23.5378 2.71531H23.5387C24.277 2.71785 24.8754 5.79658 24.8754 9.59775C24.8754 13.3989 24.2761 16.4802 23.537 16.4802C23.2341 16.4802 22.9545 15.957 22.7293 15.0803C22.3736 18.2896 21.6354 20.4958 20.7808 20.4958C20.1196 20.4958 19.5261 19.1706 19.1277 17.0805C18.8557 21.0554 18.171 23.8756 17.3708 23.8756C16.8686 23.8756 16.4108 22.7581 16.0718 20.9385C15.6642 24.6946 14.7226 27.3265 13.6244 27.3265C12.5262 27.3265 11.583 24.6955 11.177 20.9385C10.8405 22.7581 10.3827 23.8756 9.87794 23.8756C9.07778 23.8756 8.39477 21.0554 8.12109 17.0805C7.72268 19.1706 7.13093 20.4958 6.468 20.4958C5.61425 20.4958 4.87519 18.2904 4.51947 15.0803C4.29599 15.9596 4.01476 16.4802 3.71176 16.4802C2.97269 16.4802 2.37339 13.3989 2.37339 9.59775C2.37339 5.79658 2.97269 2.71531 3.71176 2.71531C4.1085 2.71531 4.46339 3.6056 4.70947 5.01651C5.1037 2.58219 5.74402 1 6.468 1C7.32762 1 8.07255 3.23762 8.42494 6.48678C8.76976 4.12198 9.29289 2.61441 9.87882 2.61441C10.6999 2.61441 11.398 5.57952 11.6566 9.71562C12.1429 7.59496 12.8468 6.26463 13.6261 6.26463C14.4053 6.26463 15.1092 7.59584 15.5947 9.71562C15.8542 5.57952 16.5514 2.61441 17.3725 2.61441C17.9576 2.61441 18.4799 4.12198 18.8264 6.48678C19.1779 3.23762 19.9228 1 20.7824 1C21.504 1 22.1468 2.58304 22.541 5.01651ZM0.460938 8.92083C0.460938 7.22162 0.800763 5.84376 1.2201 5.84376C1.63944 5.84376 1.97926 7.22162 1.97926 8.92083C1.97926 10.62 1.63944 11.9979 1.2201 11.9979C0.800763 11.9979 0.460938 10.62 0.460938 8.92083ZM25.269 8.92083C25.269 7.22162 25.6088 5.84376 26.0281 5.84376C26.4475 5.84376 26.7873 7.22162 26.7873 8.92083C26.7873 10.62 26.4475 11.9979 26.0281 11.9979C25.6088 11.9979 25.269 10.62 25.269 8.92083Z" fill="#87838B"/>
</g>
<defs>
<clipPath id="clip0_372_4895">
<rect width="26.875" height="26.3265" fill="white" transform="translate(0 1)"/>
</clipPath>
</defs>
</svg>
