<svg width="28" height="28" viewBox="0 0 28 28" fill="none" xmlns="http://www.w3.org/2000/svg">
<g clip-path="url(#clip0_244_2159)">
<path d="M19.1885 0C19.5218 1.71835e-10 19.8551 0.000403418 20.1885 0.00195312C20.4693 0.00350437 20.7505 0.00591564 21.0312 0.0136719C21.6431 0.0299622 22.2603 0.0672154 22.8652 0.175781C23.4788 0.286695 24.0507 0.466122 24.6084 0.75C25.1567 1.02922 25.6587 1.39401 26.0938 1.8291C26.5288 2.26419 26.8937 2.76518 27.1729 3.31348C27.4566 3.87179 27.6369 4.44349 27.7471 5.05762C27.8557 5.6626 27.8919 6.27963 27.9082 6.8916C27.916 7.1722 27.9193 7.4528 27.9209 7.7334C27.9224 8.06692 27.9229 8.40086 27.9229 8.73438H27.9219V19.1875C27.9219 19.521 27.9222 19.855 27.9199 20.1885C27.9184 20.4691 27.915 20.7497 27.9072 21.0303C27.8909 21.6415 27.8547 22.2593 27.7461 22.8643C27.6359 23.4784 27.4557 24.0501 27.1719 24.6084C26.8927 25.1567 26.5279 25.6577 26.0928 26.0928C25.6576 26.5279 25.1558 26.8927 24.6074 27.1719C24.0498 27.4557 23.4785 27.636 22.8643 27.7461C22.2594 27.8546 21.6421 27.8919 21.0303 27.9082C20.7495 27.916 20.4683 27.9184 20.1875 27.9199C19.8542 27.9215 19.5208 27.9219 19.1875 27.9219H8.73438C8.40086 27.9219 8.06692 27.9222 7.7334 27.9199C7.4528 27.9184 7.1722 27.916 6.8916 27.9082C6.27963 27.8919 5.66163 27.8547 5.05664 27.7461C4.44339 27.6352 3.87191 27.4556 3.31445 27.1719C2.76612 26.8927 2.26421 26.5279 1.8291 26.0928C1.394 25.6577 1.02922 25.1567 0.75 24.6084C0.466162 24.05 0.284948 23.4785 0.174805 22.8643C0.0662174 22.2593 0.02996 21.6422 0.0136719 21.0303C0.00592133 20.7497 0.00350513 20.4691 0.00195312 20.1885C0.00040196 19.855 0 19.521 0 19.1875V8.73438C0 8.40086 0.000401879 8.06712 0.00195312 7.73438C0.00350419 7.45378 0.00592413 7.17317 0.0136719 6.89258C0.02996 6.28139 0.0662174 5.66358 0.174805 5.05859C0.284936 4.44435 0.466159 3.87286 0.75 3.31445C1.02921 2.76611 1.394 2.26519 1.8291 1.83008C2.26423 1.39495 2.76609 1.0302 3.31445 0.750977C3.87198 0.467191 4.44253 0.285917 5.05664 0.175781C5.66163 0.0664184 6.27963 0.0307356 6.8916 0.0136719C7.1722 0.00592283 7.4528 0.00350464 7.7334 0.00195312C8.06692 0.000401879 8.40086 0 8.73438 0H19.1885ZM19.7393 4.26562C19.6709 4.272 19.0721 4.37883 19 4.39355L10.7012 6.06738L10.6982 6.06836C10.4818 6.11412 10.3117 6.19162 10.1807 6.30176C10.0227 6.43428 9.93475 6.62143 9.90137 6.83984C9.89439 6.88638 9.88281 6.98149 9.88281 7.12109C9.88281 7.12109 9.88281 15.5989 9.88281 17.5078C9.88281 17.7505 9.86349 17.9867 9.69922 18.1875C9.5349 18.3883 9.33166 18.449 9.09375 18.4971C8.91303 18.5335 8.7315 18.57 8.55078 18.6064C7.86542 18.7444 7.41961 18.8385 7.01562 18.9951C6.62947 19.1448 6.3397 19.3353 6.10938 19.5771C5.65253 20.0557 5.46765 20.7054 5.53125 21.3135C5.58555 21.8323 5.81879 22.3285 6.21973 22.6953C6.49042 22.9435 6.82887 23.132 7.22754 23.2119C7.64081 23.2948 8.0811 23.266 8.72461 23.1357C9.06743 23.0667 9.38874 22.959 9.69434 22.7783C9.99667 22.6 10.2556 22.3622 10.458 22.0723C10.6612 21.7814 10.7931 21.4578 10.8652 21.1143C10.9397 20.7599 10.957 20.4395 10.957 20.0859V11.0771C10.957 10.5947 11.094 10.4667 11.4834 10.3721C11.5506 10.3585 18.3819 8.98067 18.7031 8.91797C19.1521 8.83189 19.3642 8.96006 19.3643 9.43066V15.5811C19.3643 15.8245 19.3612 16.0709 19.1953 16.2725C19.0309 16.4733 18.8279 16.5339 18.5898 16.582C18.4092 16.6185 18.2285 16.655 18.0479 16.6914C17.3622 16.8295 16.9158 16.9234 16.5117 17.0801C16.1256 17.2298 15.8367 17.4212 15.6064 17.6631C15.1497 18.1416 14.9481 18.7904 15.0117 19.3984C15.066 19.9173 15.3158 20.4134 15.7168 20.7803C15.9874 21.0284 16.3251 21.2123 16.7236 21.293C17.137 21.376 17.5779 21.3463 18.2217 21.2168C18.5645 21.1478 18.8858 21.044 19.1914 20.8633C19.4937 20.6849 19.7527 20.4471 19.9551 20.1572C20.1583 19.8664 20.2892 19.5428 20.3613 19.1992C20.4358 18.8448 20.4395 18.5245 20.4395 18.1709V5C20.441 4.52222 20.1883 4.22684 19.7393 4.26562Z" fill="#87838B"/>
</g>
<defs>
<clipPath id="clip0_244_2159">
<rect width="28" height="28" fill="white"/>
</clipPath>
</defs>
</svg>
