<svg width="28" height="28" viewBox="0 0 28 28" fill="none" xmlns="http://www.w3.org/2000/svg">
<g clip-path="url(#clip0_244_2161)">
<path d="M14 0C21.732 0 28 6.26801 28 14C28 21.732 21.732 28 14 28C6.26801 28 0 21.732 0 14C0 6.26801 6.26801 0 14 0ZM14 6.68164C9.95923 6.68174 6.68174 9.95923 6.68164 14C6.68174 18.0408 9.95923 21.3183 14 21.3184C18.0408 21.3183 21.3183 18.0408 21.3184 14C21.3183 9.95923 18.0408 6.68174 14 6.68164ZM14 7.31836C17.6749 7.31846 20.6815 10.3092 20.6816 14C20.6815 17.6908 17.6908 20.6815 14 20.6816C10.3092 20.6815 7.31846 17.6908 7.31836 14C7.31846 10.3092 10.3251 7.31846 14 7.31836ZM11.4541 17.6592L17.6592 13.8408L11.4541 10.3408V17.6592Z" fill="#87838B"/>
</g>
<defs>
<clipPath id="clip0_244_2161">
<rect width="28" height="28" fill="white"/>
</clipPath>
</defs>
</svg>
