<svg width="28" height="28" viewBox="0 0 28 28" fill="none" xmlns="http://www.w3.org/2000/svg">
<g clip-path="url(#clip0_244_2158)">
<path d="M13.5625 0.4375C21.0492 0.4375 27.125 6.51328 27.125 14C27.125 21.4867 21.0492 27.5625 13.5625 27.5625C6.07578 27.5625 0 21.4867 0 14C4.99857e-07 6.51328 6.07578 0.4375 13.5625 0.4375ZM19.3711 18.6484C15.4666 16.3134 10.8888 16.2252 6.41016 17.2148C6.00015 17.3023 5.66625 17.5709 5.66602 18.1338C5.66602 18.5768 5.9998 18.998 6.53027 18.998C6.6889 18.9979 6.96753 18.9101 7.18066 18.8555C11.1015 18.0516 15.0721 18.1394 18.4844 20.1953C18.6977 20.3211 18.8406 20.3926 19.0703 20.3926C19.513 20.3923 19.9012 20.0481 19.9014 19.5508C19.9013 19.0536 19.7044 18.8616 19.3711 18.6484ZM11.3047 12.1729C9.02986 12.1729 7.47626 12.4905 5.95605 12.917C5.3929 13.0755 5.10853 13.4639 5.1084 14.0488C5.1084 14.6339 5.58388 15.1093 6.16895 15.1094C6.41496 15.1094 6.55786 15.0389 6.82031 14.9678C11.3536 13.7376 16.4503 14.552 19.8682 16.5752C20.065 16.6791 20.2566 16.8047 20.541 16.8047C21.137 16.8046 21.5961 16.3289 21.6016 15.7383C21.6014 15.263 21.427 14.9235 20.9844 14.6611C18.283 13.0534 14.8537 12.1729 11.3047 12.1729ZM11.5664 7.51367C9.22055 7.5137 7.06547 7.78152 5.14062 8.34473C4.64862 8.48697 4.18959 8.90895 4.18945 9.65234C4.18961 10.3795 4.7421 10.9424 5.46387 10.9424C5.72613 10.9423 5.97219 10.8555 6.16895 10.8008C10.6752 9.54305 17.6375 10.1006 21.5312 12.4248C21.7772 12.5669 21.9521 12.6377 22.2363 12.6377C22.9035 12.6376 23.5049 12.107 23.5049 11.3633C23.5047 10.7131 23.2261 10.3739 22.7998 10.1279C19.7428 8.34516 15.5585 7.51369 11.5664 7.51367Z" fill="#87838B"/>
</g>
<defs>
<clipPath id="clip0_244_2158">
<rect width="27.125" height="28" fill="white"/>
</clipPath>
</defs>
</svg>
