<svg width="28" height="28" viewBox="0 0 28 28" fill="none" xmlns="http://www.w3.org/2000/svg">
<g clip-path="url(#clip0_244_2160)">
<path d="M18.8226 12.7771C18.6419 12.8976 18.3708 12.988 18.0394 12.988C17.5274 12.988 17.0454 12.9277 16.5635 12.7771C16.443 12.747 16.3526 12.7169 16.2924 12.7169C16.202 12.7169 16.1719 12.7771 16.1719 12.8976V13.1988C16.1719 13.2892 16.202 13.3495 16.2321 13.4097C16.2622 13.4398 16.3225 13.5001 16.4128 13.5302C16.8948 13.741 17.437 13.8314 18.0394 13.8314C18.672 13.8314 19.1539 13.6808 19.5455 13.3796C19.9371 13.0784 20.1178 12.6868 20.1178 12.1747C20.1178 11.8132 20.0275 11.5421 19.8467 11.3012C19.666 11.0903 19.3648 10.8795 18.9431 10.7289L18.0997 10.3975C17.7683 10.277 17.5274 10.1565 17.437 10.036C17.3165 9.91556 17.2563 9.79507 17.2563 9.58422C17.2563 9.13239 17.5876 8.89142 18.2804 8.89142C18.672 8.89142 19.0636 8.95166 19.425 9.07215C19.5455 9.10227 19.6359 9.13239 19.666 9.13239C19.7564 9.13239 19.8166 9.07215 19.8166 8.95166V8.65044C19.8166 8.56007 19.7865 8.49983 19.7564 8.43959C19.7263 8.37934 19.666 8.34922 19.5756 8.3191C19.1238 8.16849 18.672 8.07812 18.2202 8.07812C17.6478 8.07812 17.1659 8.22873 16.8044 8.49983C16.443 8.77093 16.2622 9.16251 16.2622 9.61434C16.2622 10.3071 16.6538 10.8192 17.437 11.1204L18.3406 11.4518C18.6419 11.5723 18.8226 11.6626 18.9431 11.7831C19.0636 11.9036 19.0937 12.0241 19.0937 12.2048C19.0937 12.4458 19.0033 12.6566 18.8226 12.7771Z" fill="#87838B"/>
<path d="M14.0946 8.43937V12.4456C13.5825 12.7769 13.0704 12.9576 12.5584 12.9576C12.227 12.9576 11.986 12.8673 11.8354 12.6866C11.6848 12.5058 11.6246 12.2347 11.6246 11.8431V8.43937C11.6246 8.28876 11.5643 8.22852 11.4137 8.22852H10.7812C10.6306 8.22852 10.5703 8.28876 10.5703 8.43937V12.1745C10.5703 12.6866 10.6908 13.1083 10.9619 13.3794C11.233 13.6505 11.6246 13.8011 12.1367 13.8011C12.8295 13.8011 13.5223 13.5601 14.1849 13.0781L14.2452 13.4396C14.2452 13.53 14.2753 13.5601 14.3355 13.5902C14.3657 13.6203 14.4259 13.6203 14.5163 13.6203H14.9681C15.1187 13.6203 15.179 13.5601 15.179 13.4095V8.43937C15.179 8.28876 15.1187 8.22852 14.9681 8.22852H14.3355C14.1548 8.22852 14.0946 8.31888 14.0946 8.43937Z" fill="#87838B"/>
<path d="M8.36935 13.6507H9.00191C9.15252 13.6507 9.21276 13.5904 9.21276 13.4398V9.67458C9.21276 9.16251 9.09228 8.77093 8.82118 8.49983C8.55008 8.22873 8.18862 8.07812 7.67655 8.07812C6.98375 8.07812 6.26082 8.3191 5.56802 8.83117C5.32704 8.3191 4.87522 8.07812 4.21253 8.07812C3.54985 8.07812 2.88717 8.3191 2.22449 8.77093L2.16425 8.43959C2.16425 8.34922 2.13412 8.3191 2.07388 8.28898C2.04376 8.25886 1.98352 8.25886 1.92327 8.25886H1.44132C1.29071 8.25886 1.23047 8.3191 1.23047 8.46971V13.4699C1.23047 13.6205 1.29071 13.6808 1.44132 13.6808H2.07388C2.22449 13.6808 2.28473 13.6205 2.28473 13.4699V9.40349C2.79681 9.10227 3.30888 8.92154 3.85107 8.92154C4.15229 8.92154 4.36314 9.0119 4.48363 9.19263C4.60412 9.37337 4.69448 9.61434 4.69448 9.9758V13.4398C4.69448 13.5904 4.75473 13.6507 4.90534 13.6507H5.5379C5.68851 13.6507 5.74875 13.5904 5.74875 13.4398V9.73483V9.5541C5.74875 9.49385 5.74875 9.43361 5.74875 9.40349C6.29094 9.07215 6.80302 8.92154 7.31509 8.92154C7.61631 8.92154 7.82716 9.0119 7.94765 9.19263C8.06813 9.37337 8.1585 9.61434 8.1585 9.9758V13.4398C8.1585 13.5904 8.21874 13.6507 8.36935 13.6507Z" fill="#87838B"/>
<path d="M24.786 17.6575C21.5027 19.0431 17.9182 19.7359 14.665 19.7359C9.84552 19.7359 5.17663 18.4105 1.4114 16.2116C1.35115 16.1815 1.29091 16.1514 1.23066 16.1514C1.01981 16.1514 0.899324 16.3923 1.11018 16.6032C4.60431 19.766 9.24308 21.6637 14.3638 21.6637C18.0387 21.6637 22.2859 20.519 25.2077 18.3503C25.7197 17.9888 25.298 17.4466 24.786 17.6575Z" fill="#87838B"/>
<path d="M24.6936 9.43376C24.9647 9.13254 25.3864 8.98193 25.9888 8.98193C26.2901 8.98193 26.5913 9.01205 26.8624 9.10242C26.9527 9.13254 26.9829 9.13254 27.0431 9.13254C27.1335 9.13254 27.1937 9.0723 27.1937 8.92169V8.62047C27.1937 8.5301 27.1636 8.43974 27.1335 8.40962C27.1033 8.3795 27.0431 8.31925 26.9829 8.28913C26.5913 8.19876 26.1997 8.1084 25.8382 8.1084C24.9948 8.1084 24.3623 8.34937 23.8803 8.86145C23.4285 9.3434 23.1875 10.0663 23.1875 10.97C23.1875 11.8736 23.3984 12.5664 23.8502 13.0484C24.302 13.5303 24.9346 13.7713 25.778 13.7713C26.2298 13.7713 26.6515 13.7111 26.9829 13.5605C27.0732 13.5303 27.1335 13.5002 27.1636 13.44C27.1937 13.4098 27.1937 13.3195 27.1937 13.2291V12.9279C27.1937 12.7773 27.1335 12.717 27.0431 12.717C27.013 12.717 26.9527 12.717 26.8925 12.7472C26.5612 12.8375 26.2298 12.8978 25.9286 12.8978C25.3563 12.8978 24.9346 12.7472 24.6635 12.4459C24.3924 12.1447 24.2719 11.6628 24.2719 11.0302V10.8796C24.302 10.2169 24.4225 9.73498 24.6936 9.43376Z" fill="#87838B"/>
<path d="M26.0517 20.4883C27.618 19.1629 28.0397 16.4218 27.7084 16.0001C27.5578 15.8194 26.8349 15.6387 25.9312 15.6387C24.9673 15.6387 23.8227 15.8495 22.9491 16.452C22.678 16.6327 22.7383 16.8737 23.0094 16.8435C23.9431 16.7231 26.0517 16.4821 26.4433 16.964C26.8047 17.446 26.0216 19.434 25.6601 20.3076C25.5697 20.5787 25.7806 20.669 26.0517 20.4883Z" fill="#87838B"/>
<path d="M21.8629 8.22852H21.2304C21.0798 8.22852 21.0195 8.28876 21.0195 8.43937V13.4396C21.0195 13.5902 21.0798 13.6505 21.2304 13.6505H21.8629C22.0136 13.6505 22.0738 13.5902 22.0738 13.4396V8.43937C22.0738 8.31888 22.0136 8.22852 21.8629 8.22852Z" fill="#87838B"/>
<path d="M22.0458 6.18073C21.9254 6.06024 21.7446 6 21.5338 6C21.3229 6 21.1723 6.06024 21.0518 6.18073C20.9313 6.30122 20.8711 6.45183 20.8711 6.63256C20.8711 6.81329 20.9313 6.99402 21.0518 7.08439C21.1723 7.20487 21.3229 7.26512 21.5338 7.26512C21.7446 7.26512 21.8952 7.20487 22.0157 7.08439C22.1362 6.9639 22.1965 6.81329 22.1965 6.63256C22.1965 6.45183 22.1663 6.2711 22.0458 6.18073Z" fill="#87838B"/>
</g>
<defs>
<clipPath id="clip0_244_2160">
<rect width="26.8133" height="15.6634" fill="white" transform="translate(1 6)"/>
</clipPath>
</defs>
</svg>
