<svg width="24" height="24" viewBox="0 0 24 24" fill="none" xmlns="http://www.w3.org/2000/svg">
<path fill-rule="evenodd" clip-rule="evenodd" d="M12 0C18.6274 0 24 5.37258 24 12C24 18.6274 18.6274 24 12 24C5.37258 24 0 18.6274 0 12C0 5.37258 5.37258 0 12 0ZM12.418 14.6104C12.418 14.7483 12.418 14.8849 12.4121 15.0199C12.4121 15.0361 12.4107 15.0525 12.4092 15.0703C12.4092 15.0777 12.409 15.0851 12.4076 15.0924V15.0983C12.3512 15.8475 11.9252 16.5181 11.2725 16.889C10.9372 17.0804 10.5589 17.18 10.1732 17.18C8.93439 17.18 7.93164 16.1694 7.93164 14.9232C7.93172 13.677 8.93444 12.6667 10.1732 12.6667C10.4076 12.6667 10.6404 12.704 10.863 12.7767L10.8662 10.0703C9.49833 9.89376 8.1185 10.2976 7.06217 11.1833C6.60376 11.5809 6.21939 12.0555 5.92415 12.5866C5.8114 12.7795 5.38854 13.5569 5.33659 14.8193C5.30395 15.5358 5.51903 16.2776 5.62142 16.5833V16.5895C5.68525 16.7706 5.93604 17.3861 6.34245 17.9053C6.6703 18.3221 7.05915 18.6886 7.49382 18.9912V18.9854L7.49967 18.9912C8.78072 19.8615 10.2017 19.8094 10.2132 19.8089C10.4595 19.7985 11.2874 19.8087 12.2266 19.3636C13.2601 18.8733 13.8524 18.1464 13.8613 18.1354C14.2396 17.6963 14.5426 17.1947 14.7533 16.6546C14.9936 16.0226 15.0736 15.2644 15.0736 14.9603V9.50814C15.106 9.52728 15.5284 9.8066 15.5348 9.81087C15.5348 9.81087 16.1536 10.207 17.1195 10.4652C17.8089 10.6482 18.7363 10.6871 18.7454 10.6875V8.0498C18.419 8.08539 17.7543 7.98147 17.0749 7.64323H17.0765C16.9727 7.58983 16.8704 7.53043 16.7725 7.46517C16.4861 7.27527 16.2235 7.05267 15.9906 6.80046C15.4075 6.13287 15.1892 5.45504 15.109 4.98177H15.1123C15.0458 4.58993 15.0719 4.33503 15.0765 4.33333H12.418V14.6104Z" fill="#87838B"/>
</svg>
