<svg width="28" height="28" viewBox="0 0 28 28" fill="none" xmlns="http://www.w3.org/2000/svg">
<g clip-path="url(#clip0_244_2162)">
<path d="M22.2267 0H5.77412C2.625 0 0 2.5935 0 5.77412V22.2267C0 25.3759 2.58912 28.0009 5.77412 28.0009H22.2267C25.4074 28.0009 28.0009 25.4074 28.0009 22.2267V5.77412C28.0009 2.625 25.4074 0 22.2267 0ZM14.4384 18.4476H13.0034V21.7026C13.0034 22.1217 12.6525 22.4542 12.2509 22.4542H7.75337V5.55187H15.4C19.1144 5.55187 21.9861 7.47425 21.9861 11.8492C21.9861 15.9967 18.8002 18.4441 14.4576 18.4441H14.4392L14.4384 18.4476Z" fill="#87838B"/>
</g>
<defs>
<clipPath id="clip0_244_2162">
<rect width="28" height="28" fill="white"/>
</clipPath>
</defs>
</svg>
