<svg width="24" height="24" viewBox="0 0 24 24" fill="none" xmlns="http://www.w3.org/2000/svg">
<path fill-rule="evenodd" clip-rule="evenodd" d="M11.998 5.83728C15.4023 5.83728 18.1607 8.59739 18.1608 11.9997C18.1608 15.404 15.4024 18.1624 11.998 18.1624C8.59376 18.1623 5.83566 15.404 5.83566 11.9997C5.83572 8.59543 8.5958 5.83734 11.998 5.83728ZM12 7.99913C9.79037 7.99921 7.9995 9.78808 7.99946 11.9977C7.99946 14.2074 9.78837 15.9985 11.998 15.9986V16.0005C14.2078 16.0005 15.9989 14.2094 15.9989 11.9997C15.9989 9.79 14.2097 7.99913 12 7.99913Z" fill="#87838B"/>
<path d="M18.4029 4.15415C19.1986 4.15422 19.8426 4.79849 19.8426 5.59419C19.8425 6.38983 19.1985 7.03383 18.4029 7.0339C17.6072 7.0339 16.9629 6.38987 16.9628 5.59419C16.9628 4.79844 17.6071 4.15415 18.4029 4.15415Z" fill="#87838B"/>
<path fill-rule="evenodd" clip-rule="evenodd" d="M12 0.0019526C15.2587 0.00195281 15.6675 0.016038 16.9479 0.0738732C18.2242 0.131708 19.0957 0.333212 19.8595 0.630363C20.6612 0.931508 21.3853 1.40416 21.9856 2.01443C22.5958 2.61469 23.0685 3.34049 23.3696 4.14015C23.6668 4.90199 23.8702 5.77575 23.9281 7.05212C23.9859 8.33237 24 8.74138 24 12C24 15.2587 23.9859 15.6675 23.9281 16.9479C23.8683 18.2242 23.6668 19.0957 23.3696 19.8595C22.7454 21.4729 21.4709 22.7454 19.8595 23.3696C19.0977 23.6668 18.2242 23.8702 16.9479 23.9281C15.6675 23.9859 15.2587 24 12 24C8.74138 24 8.33237 23.9859 7.05212 23.9281C5.77575 23.8682 4.90398 23.6668 4.14015 23.3696C3.33849 23.0685 2.61469 22.5958 2.01443 21.9856C1.40416 21.3853 0.931508 20.6593 0.630363 19.8595C0.333213 19.0977 0.129756 18.2242 0.0719206 16.9479C0.0140852 15.6675 2.01931e-07 15.2587 0 12C0 8.74137 0.0140901 8.33238 0.0719206 7.05212C0.129756 5.77575 0.330929 4.90398 0.628085 4.14015C0.929207 3.33851 1.40196 2.61469 2.01215 2.01443C2.61242 1.40418 3.33851 0.931509 4.1382 0.630363C4.90001 0.333218 5.77355 0.129765 7.04985 0.0719206C8.33021 0.0140848 8.7393 0 11.998 0L12 0.0019526ZM11.998 2.16185C8.79518 2.16185 8.41413 2.17398 7.14975 2.23182C5.98119 2.28566 5.34497 2.48094 4.92217 2.64446C4.39965 2.83592 3.92891 3.14314 3.54201 3.54201C3.14314 3.92891 2.83592 4.40165 2.64446 4.92217C2.48094 5.34497 2.28566 5.9792 2.23182 7.14975C2.17398 8.41413 2.16185 8.79518 2.16185 11.998C2.16185 15.2007 2.17399 15.5817 2.23182 16.846C2.28566 18.0147 2.48093 18.6511 2.64446 19.0739C2.83592 19.5964 3.14316 20.0672 3.54201 20.4541C3.92889 20.8529 4.40169 21.1599 4.92217 21.3513C5.34497 21.5148 5.97917 21.7104 7.14975 21.7643C8.41412 21.8221 8.79519 21.8339 11.998 21.8339C15.2007 21.8339 15.5817 21.8221 16.846 21.7643C18.0147 21.7104 18.6511 21.5148 19.0739 21.3513C20.1209 20.9465 20.9484 20.1209 21.3513 19.0739C21.5148 18.6511 21.7104 18.0167 21.7643 16.846C21.8221 15.5817 21.8339 15.2007 21.8339 11.998C21.8339 8.79519 21.8221 8.41412 21.7643 7.14975C21.7104 5.98116 21.5148 5.34497 21.3513 4.92217C21.1599 4.3997 20.8529 3.92889 20.4541 3.54201C20.0672 3.14316 19.5944 2.83592 19.0739 2.64446C18.6511 2.48093 18.0167 2.28566 16.846 2.23182C15.5817 2.17399 15.2007 2.16185 11.998 2.16185Z" fill="#87838B"/>
</svg>
